<svg width="49" height="48" viewBox="0 0 49 48" fill="none" xmlns="http://www.w3.org/2000/svg">
<path d="M19.9806 24.6456L21.0039 16.8608C20.6008 16.8608 19.9109 16.8608 19.9109 16.8608C19.3992 16.8608 18.7403 16.5146 18.5465 15.8784C18.4845 15.6632 18.3372 14.924 19.1822 14.2035C19.4845 13.9509 19.6783 13.6702 19.7171 13.455C19.7558 13.2304 19.7093 13.0339 19.5775 12.8842C19.3915 12.669 19.0271 12.5474 18.562 12.5474C17.7791 12.5474 17.2287 13.0901 17.1744 13.483C17.1357 13.7731 17.3217 14.007 17.4845 14.1567C17.9729 14.5965 18.0892 15.2327 17.7868 15.8316C17.4768 16.4491 16.8023 16.8515 16.0814 16.8608C16.0814 16.8608 15.3682 16.8608 14.9651 16.8608C14.8721 17.6187 13.3527 29.2398 13.2365 30.1567H19.2675C19.3217 29.7544 19.6008 27.5555 19.9806 24.6456Z" fill="white"/>
<path d="M12.9109 32.8516H15.3837C16.438 32.8516 16.6938 33.4972 16.6163 34.0866C16.5543 34.5638 16.283 34.9194 15.8179 35.1533C16.407 35.4247 16.6396 35.8457 16.5543 36.51C16.4458 37.3428 15.8489 37.9603 15.0659 37.9603H12.252L12.9109 32.8516ZM14.5465 34.9662C15.0272 34.9662 15.252 34.6574 15.2985 34.2925C15.345 33.8995 15.1977 33.6282 14.7171 33.6282H14.2907L14.1202 34.9662H14.5465ZM14.283 37.165C14.7791 37.165 15.0659 36.9217 15.1357 36.4258C15.1899 35.9954 14.9884 35.7428 14.5078 35.7428H14.0272L13.8411 37.1744H14.283V37.165Z" fill="white"/>
<path d="M20.0194 37.9978C19.376 38.054 19.0659 37.9698 18.9109 37.6329C18.5698 37.8855 18.19 38.0165 17.7869 38.0165C17.0582 38.0165 16.8024 37.5581 16.8721 37.0528C16.9031 36.8095 17.0194 36.5756 17.2055 36.3791C17.6086 35.9581 18.6008 35.9019 18.9884 35.5838C19.0194 35.2282 18.9031 35.0972 18.5388 35.0972C18.1124 35.0972 17.7558 35.2657 17.1434 35.7709L17.2907 34.6107C17.8179 34.1522 18.3295 33.937 18.9186 33.937C19.6706 33.937 20.3373 34.3113 20.2132 35.3031L20.0659 36.4259C20.0117 36.8189 20.0272 36.9405 20.3915 36.9499L20.0194 37.9978ZM18.9031 36.2294C18.5621 36.4914 17.9264 36.4446 17.8566 36.9873C17.8256 37.2399 17.9574 37.4271 18.1667 37.4271C18.3683 37.4271 18.6163 37.3241 18.8179 37.1557C18.8024 37.0622 18.8101 36.9686 18.8334 36.7908L18.9031 36.2294Z" fill="white"/>
<path d="M21.2209 34.0025H22.5077L22.438 34.5171C22.8488 34.0961 23.1589 33.937 23.562 33.937C24.2829 33.937 24.6162 34.4703 24.4999 35.3405L24.1666 37.951H22.8798L23.1589 35.7896C23.2131 35.3967 23.1124 35.2095 22.8643 35.2095C22.6628 35.2095 22.4767 35.3405 22.2984 35.6306L22.0038 37.9417H20.717L21.2209 34.0025Z" fill="white"/>
<path d="M25.5078 32.8516H26.7946L26.4691 35.3592L27.7016 34.0024H29.2907L27.7094 35.6866L28.9807 37.951H27.3605L26.3838 36.1171H26.3683L26.1357 37.9416H24.8489L25.5078 32.8516Z" fill="white"/>
<path d="M30.0582 32.8516H31.5388L30.8876 37.951H29.407L30.0582 32.8516Z" fill="white"/>
<path d="M32.2597 32.8516H34.3759C36.0116 32.8516 36.4844 34.2831 36.3294 35.4714C36.1821 36.6317 35.4224 37.951 33.9883 37.951H31.6008L32.2597 32.8516ZM33.6318 36.7346C34.3527 36.7346 34.748 36.3042 34.8643 35.3966C34.9496 34.7229 34.779 34.0586 33.9806 34.0586H33.5852L33.2442 36.7346H33.6318Z" fill="white"/>
<path d="M28.0892 10.0586H21.9264L21.1047 16.3557H22.1512C22.7248 16.3557 23.2675 16.0375 23.5 15.5791C23.5776 15.4294 23.6086 15.2984 23.6086 15.1767C23.6086 14.9147 23.4613 14.7182 23.314 14.5872C22.9109 14.2223 22.8256 13.8387 22.8256 13.5674C22.8256 13.5112 22.8256 13.4644 22.8334 13.4177C22.9186 12.7533 23.6628 12.0329 24.6473 12.0329C25.2365 12.0329 25.6861 12.2013 25.9574 12.5101C26.1977 12.7814 26.2907 13.165 26.221 13.5674C26.1357 14.0446 25.7403 14.4375 25.5155 14.634C24.9186 15.1393 24.9962 15.5791 25.0349 15.7101C25.1589 16.103 25.6318 16.3557 25.9962 16.3557H27.5931C27.5931 16.3557 27.5931 16.3557 27.5931 16.365C29.7636 16.3837 30.9264 17.5908 30.5621 20.3978C30.221 23.0083 28.5621 24.1311 26.5853 24.1498L25.8024 30.1756H26.9574C31.8334 30.1756 35.8179 26.3954 36.6008 20.4258C37.5698 13.0153 33.6706 10.0586 28.0892 10.0586Z" fill="white"/>
</svg>
