<svg width="168" height="48" viewBox="0 0 168 48" fill="none" xmlns="http://www.w3.org/2000/svg">
<path d="M18.2642 27.4611H11.6018L5.09253 34.8744V18.0628H0V47.392H5.09253V42.1257L7.19847 39.7761L12.1761 47.392H18.4174L10.7211 35.8467L18.2642 27.4611Z" fill="#6366F1"/>
<path d="M28.9904 43.098C26.5016 43.098 24.2042 41.1535 24.2042 37.4266C24.2042 33.6591 26.5016 31.7552 28.9904 31.7552C31.4792 31.7552 33.7766 33.6591 33.7766 37.4266C33.7766 41.194 31.4792 43.098 28.9904 43.098ZM28.9904 26.8535C23.3618 26.8535 19.1117 31.269 19.1117 37.4266C19.1117 43.5436 23.3618 47.9997 28.9904 47.9997C34.619 47.9997 38.8691 43.5436 38.8691 37.4266C38.8691 31.269 34.619 26.8535 28.9904 26.8535Z" fill="#6366F1"/>
<path d="M47.9815 47.392V18.0628H42.889V47.392H47.9815Z" fill="#6366F1"/>
<path d="M58.5261 47.392V18.0628H53.4336V47.392H58.5261Z" fill="#6366F1"/>
<path d="M67.6923 35.158C67.8072 33.3351 69.2622 31.2285 71.9042 31.2285C74.8142 31.2285 76.0395 33.173 76.1161 35.158H67.6923ZM76.6138 40.3433C76.0012 42.1257 74.6993 43.3815 72.3254 43.3815C69.7983 43.3815 67.6923 41.4776 67.5775 38.8444H81.0554C81.0554 38.7634 81.132 37.9532 81.132 37.1835C81.132 30.7829 77.6477 26.8535 71.8276 26.8535C67.0031 26.8535 62.5615 30.9855 62.5615 37.3455C62.5615 44.0702 67.118 47.9997 72.2871 47.9997C76.9202 47.9997 79.9068 45.1235 80.864 41.6801L76.6138 40.3433Z" fill="#6366F1"/>
<path d="M103.406 27.4611H96.7441L90.2348 34.8744V18.0628H85.1423V47.392H90.2348V42.1257L92.3407 39.7761L97.3184 47.392H103.56L95.8634 35.8467L103.406 27.4611Z" fill="#6366F1"/>
<path d="M112.81 21.5061H108.215V24.3013C108.215 26.0838 107.296 27.4611 105.305 27.4611H104.348V32.2413H107.756V41.5181C107.756 45.3665 110.053 47.6756 113.729 47.6756C115.222 47.6756 116.141 47.392 116.601 47.1895V42.7334C116.333 42.8144 115.644 42.8954 115.031 42.8954C113.576 42.8954 112.81 42.3283 112.81 40.5863V32.2413H116.601V27.4611H112.81V21.5061Z" fill="#6366F1"/>
<path d="M126.019 47.392V27.4611H120.927V47.392H126.019ZM120.314 20.939C120.314 22.7214 121.731 24.2203 123.454 24.2203C125.215 24.2203 126.594 22.7214 126.594 20.939C126.594 19.0755 125.215 17.5767 123.454 17.5767C121.731 17.5767 120.314 19.0755 120.314 20.939Z" fill="#6366F1"/>
<path d="M149.238 27.4611H143.877L139.397 40.8294L134.726 27.4611H129.136L136.832 47.392H141.924L149.238 27.4611Z" fill="#6366F1"/>
<path d="M149.206 37.2462C149.206 35.3107 149.546 33.6115 150.227 32.1487C150.929 30.6858 151.876 29.5605 153.067 28.7729C154.258 27.9852 155.588 27.5913 157.055 27.5913C158.31 27.5913 159.406 27.8614 160.342 28.4015C161.299 28.9416 162.033 29.6506 162.544 30.5283V27.8614H168V46.6985H162.544V44.0316C162.012 44.9093 161.267 45.6183 160.31 46.1584C159.374 46.6985 158.279 46.9686 157.024 46.9686C155.577 46.9686 154.258 46.5748 153.067 45.7871C151.876 44.9769 150.929 43.8403 150.227 42.3775C149.546 40.8921 149.206 39.1817 149.206 37.2462ZM162.544 37.28C162.544 35.8396 162.161 34.7031 161.395 33.8704C160.65 33.0377 159.736 32.6213 158.651 32.6213C157.566 32.6213 156.641 33.0377 155.875 33.8704C155.13 34.6806 154.758 35.8058 154.758 37.2462C154.758 38.6866 155.13 39.8343 155.875 40.6895C156.641 41.5223 157.566 41.9386 158.651 41.9386C159.736 41.9386 160.65 41.5223 161.395 40.6895C162.161 39.8568 162.544 38.7203 162.544 37.28Z" fill="#6366F1"/>
<path fill-rule="evenodd" clip-rule="evenodd" d="M35.8197 10.2087C32.1335 13.0707 29.7594 17.1987 29.7594 22.6836L24.4414 22.6836C24.4414 15.2044 27.7842 9.46868 32.6733 5.67271C37.4918 1.93164 43.7777 0.0781965 49.937 0.00242359C56.0946 -0.0733286 62.4053 1.62493 67.2516 5.34784C72.1821 9.13552 75.4944 14.9609 75.4944 22.6836H70.1764C70.1764 16.8796 67.7717 12.7005 64.127 9.90064C60.3979 7.03597 55.2749 5.56353 49.9988 5.62843C44.7243 5.69332 39.5765 7.29191 35.8197 10.2087Z" fill="#6366F1"/>
</svg>
